<svg width="20" height="19" viewBox="0 0 20 19" fill="none" xmlns="http://www.w3.org/2000/svg">
<path d="M15.6514 10.063V17.2268H4.34889V9.91589H3.08838V17.8571C3.08838 18.2052 3.37053 18.4873 3.71861 18.4873H16.2817C16.6298 18.4873 16.9119 18.2051 16.9119 17.8571V10.063H15.6514Z" fill="#0BCAD4"/>
<path d="M19.998 8.87831C19.9842 8.7048 19.8991 8.54468 19.7629 8.43609L10.3932 0.957061C10.1629 0.773428 9.83665 0.773428 9.60685 0.957061L0.23708 8.43609C0.100947 8.54468 0.015869 8.7048 0.00200184 8.87831C-0.0118653 9.05183 0.0467675 9.22347 0.16376 9.35226L2.03353 11.4111C2.15747 11.5476 2.32849 11.6176 2.50032 11.6176C2.63876 11.6176 2.77825 11.572 2.89403 11.4794L10.0001 5.78651L17.1058 11.4794C17.3661 11.6869 17.7428 11.6579 17.9665 11.4111L19.8363 9.35226C19.9535 9.22347 20.0119 9.05183 19.998 8.87831ZM17.4317 10.125L10.394 4.48714C10.2791 4.39491 10.1396 4.3487 10.0001 4.3487C9.86064 4.3487 9.72114 4.39491 9.60603 4.48714L2.56817 10.125L1.54845 9.00202L10.0001 2.25581L18.4516 9.00202L17.4317 10.125Z" fill="#0BCAD4"/>
<path d="M15.8405 0H13.3613C13.0131 0 12.731 0.282148 12.731 0.630234V4.20168H13.9915V1.26047H15.2102V6.09238H16.4707V0.630234C16.4707 0.282109 16.1886 0 15.8405 0Z" fill="#0BCAD4"/>
<path d="M10.0001 10.063C9.65198 10.063 9.36987 10.3451 9.36987 10.6932V14.9369C9.36987 15.2851 9.65202 15.5672 10.0001 15.5672C10.3482 15.5672 10.6301 15.285 10.6303 14.9369V10.6932C10.6303 10.3451 10.3482 10.063 10.0001 10.063Z" fill="#0BCAD4"/>
<path d="M12.122 12.1848H7.87828C7.53016 12.1848 7.24805 12.467 7.24805 12.815C7.24805 13.1632 7.5302 13.4453 7.87828 13.4453H12.122C12.4701 13.4453 12.7522 13.1631 12.7522 12.815C12.7522 12.467 12.4701 12.1848 12.122 12.1848Z" fill="#0BCAD4"/>
</svg>
