<svg width="46" height="46" viewBox="0 0 46 46" fill="none" xmlns="http://www.w3.org/2000/svg">
<rect width="46" height="46" rx="23" fill="#FD4444"/>
<g clip-path="url(#clip0)">
<path d="M31.3827 17.944L27.0557 13.617C26.7608 13.3224 26.2838 13.3221 25.989 13.6165L14.8444 24.7359L15.9105 25.8046L26.5216 15.2175L29.7824 18.4786L19.1955 29.0894L20.2639 30.1556L31.3834 19.0107C31.6775 18.7158 31.6773 18.2383 31.3827 17.944Z" fill="white"/>
<path d="M32.6659 13.3909L31.6094 12.3343C31.3633 12.0883 30.9814 12.0422 30.6841 12.2229L27.0363 14.4367L27.8194 15.727L30.9608 13.8203L31.1797 14.0394L29.2732 17.1808L30.5636 17.9639L32.7774 14.3161C32.958 14.0189 32.912 13.6367 32.6659 13.3909Z" fill="white"/>
<path d="M21.672 30.498L14.5022 23.3282C14.2076 23.0333 13.7296 23.0333 13.4351 23.3282C13.1402 23.6228 13.1402 24.1008 13.4351 24.3953L20.6049 31.5651C20.752 31.7126 20.9452 31.7862 21.1384 31.7862C21.3314 31.7862 21.5249 31.7125 21.672 31.5651C21.9669 31.2706 21.9669 30.7926 21.672 30.498Z" fill="white"/>
<path d="M21.4836 23.9072L14.4402 30.9766L15.5093 32.0417L22.5527 24.9724L21.4836 23.9072Z" fill="white"/>
<path d="M20.0007 22.4242L12.9573 29.4935L14.0264 30.5587L21.0698 23.4894L20.0007 22.4242Z" fill="white"/>
<path d="M17.2694 32.7117L12.2883 27.7303C11.9935 27.4357 11.5155 27.4352 11.2209 27.7303C10.9263 28.0249 10.9263 28.5026 11.2209 28.7974L16.202 33.7788C16.3494 33.9263 16.5427 33.9999 16.7358 33.9999C16.9288 33.9999 17.1223 33.9262 17.2694 33.7788C17.5641 33.4843 17.5641 33.0065 17.2694 32.7117Z" fill="white"/>
<path d="M34.7789 10.2213C34.484 9.92641 34.0066 9.92641 33.7117 10.2213L31.0702 12.8627C30.7753 13.1574 30.7753 13.6353 31.0702 13.9299C31.2176 14.0773 31.4106 14.151 31.6038 14.151C31.797 14.151 31.9902 14.0773 32.1373 13.9299L34.7788 11.2884C35.0737 10.9938 35.0737 10.5159 34.7789 10.2213Z" fill="white"/>
<path d="M19.7598 20.9879L18.6925 22.0552L22.9439 26.3066L24.0113 25.2393L19.7598 20.9879Z" fill="white"/>
</g>
<defs>
<clipPath id="clip0">
<rect width="24" height="24" fill="white" transform="translate(11 10)"/>
</clipPath>
</defs>
</svg>
