<svg width="46" height="46" viewBox="0 0 46 46" fill="none" xmlns="http://www.w3.org/2000/svg">
<rect width="46" height="46" rx="23" fill="#FF7854"/>
<path d="M32.8898 13.3413C31.6794 12.1177 30.0442 11.4412 28.2855 11.4362C26.4753 11.4301 24.6613 12.116 23.2078 13.3353C21.5548 11.8796 20.0595 11.1698 18.6514 11.1698C16.6849 11.1698 14.8604 11.9443 13.5264 13.3383C12.5237 14.341 11.8367 15.6574 11.5389 17.1456C11.4498 17.5928 11.7395 18.0277 12.1868 18.1171C12.6335 18.2058 13.0689 17.9165 13.1584 17.4692C13.3918 16.302 13.9227 15.2773 14.7066 14.4932C15.7387 13.4148 17.1399 12.8212 18.6514 12.8212C19.7466 12.8212 21.0732 13.5591 22.5804 14.9999C22.7493 15.1697 22.9714 15.2635 23.2057 15.2638C23.206 15.2638 23.2065 15.2638 23.2068 15.2638C23.4404 15.2638 23.6625 15.1705 23.8318 15.0013C25.0486 13.7845 26.6642 13.0876 28.266 13.0876C28.2713 13.0876 28.2762 13.0876 28.2812 13.0876C29.616 13.0912 30.8039 13.5808 31.7066 14.4932C32.7657 15.5993 33.349 17.0482 33.349 18.5735C33.349 20.0999 32.7525 21.5848 31.7292 22.6312L23.2202 30.8566L16.4729 24.3376C16.1451 24.0208 15.6225 24.0304 15.3054 24.3574C14.9886 24.6855 14.9977 25.2081 15.3255 25.5249L22.6466 32.5983C22.8065 32.753 23.0135 32.8303 23.2202 32.8303C23.4268 32.8303 23.6338 32.753 23.794 32.5986L32.8931 23.8022C34.2321 22.4335 35 20.5278 35 18.5734C35 16.6207 34.2538 14.7659 32.8898 13.3413Z" fill="white"/>
<path d="M33.5138 20.4726H26.8532C26.6259 20.4726 26.409 20.5658 26.2532 20.731L23.7494 23.3784L20.8656 16.8368C20.7418 16.5558 20.472 16.3667 20.1657 16.3461C19.861 16.3265 19.5668 16.4765 19.4063 16.7383L17.1159 20.4726H11.8257C11.3696 20.4726 11 20.8422 11 21.2983C11 21.7544 11.3696 22.124 11.8257 22.124H17.5777C17.8648 22.124 18.1315 21.9748 18.2815 21.7298L19.9902 18.9445L22.74 25.1818C22.8515 25.435 23.0824 25.6153 23.3548 25.6623C23.4016 25.6703 23.4487 25.6744 23.4955 25.6744C23.7206 25.6744 23.9383 25.5825 24.0955 25.4162L27.2089 22.1239H33.5138C33.9699 22.1239 34.3395 21.7543 34.3395 21.2982C34.3394 20.8422 33.9698 20.4726 33.5138 20.4726Z" fill="white"/>
</svg>
