<svg width="46" height="46" viewBox="0 0 46 46" fill="none" xmlns="http://www.w3.org/2000/svg">
<rect width="46" height="46" rx="23" fill="#00CC6A"/>
<path d="M28.5744 10H17.4531C16.9981 10 16.6293 10.3688 16.6293 10.8238V14.8604C16.6293 15.3154 16.9981 15.6842 17.4531 15.6842H28.5744C29.0294 15.6842 29.3982 15.3154 29.3982 14.8604V10.8238C29.3982 10.3688 29.0294 10 28.5744 10ZM27.7506 14.0366H18.2769V11.6476H27.7506V14.0366H27.7506Z" fill="white"/>
<path d="M27.3936 14.8881H25.746V18.6775H27.3936V14.8881Z" fill="white"/>
<path d="M20.254 14.8881H18.6064V18.6775H20.254V14.8881Z" fill="white"/>
<path d="M28.9863 17.8535H17.0137C16.2567 17.8535 15.6407 18.4695 15.6407 19.2265V32.627C15.6407 33.3841 16.2567 34 17.0137 34H28.9863C29.7433 34 30.3593 33.3841 30.3593 32.627V19.2265C30.3593 18.4695 29.7433 17.8535 28.9863 17.8535ZM28.7117 32.3524H17.2883V19.5011H28.7117V32.3524V32.3524Z" fill="white"/>
<path d="M23 22.1647C22.545 22.1647 22.1762 22.5334 22.1762 22.9885V28.8649C22.1762 29.3199 22.545 29.6887 23 29.6887C23.455 29.6887 23.8238 29.3199 23.8238 28.8649V22.9885C23.8238 22.5334 23.455 22.1647 23 22.1647Z" fill="white"/>
<path d="M25.9382 25.103H20.0618C19.6068 25.103 19.238 25.4718 19.238 25.9268C19.238 26.3818 19.6068 26.7506 20.0618 26.7506H25.9382C26.3935 26.7506 26.762 26.3818 26.762 25.9268C26.762 25.4718 26.3932 25.103 25.9382 25.103Z" fill="white"/>
</svg>
