<svg width="46" height="46" viewBox="0 0 46 46" fill="none" xmlns="http://www.w3.org/2000/svg">
<path d="M24.505 26.4522V21.934H22.9103V26.4522H20.3322C18.2511 26.4522 16.5581 28.1453 16.5581 30.2261C16.5581 32.3071 18.2631 34.0001 20.3588 34.0001H20.7309C22.8119 34.0001 24.505 32.3071 24.505 30.2261V28.0469H27.2159V26.4522H24.505ZM22.9103 30.2258C22.9103 31.4274 21.9325 32.4052 20.7309 32.4052H20.3588C19.1218 32.4052 18.1528 31.4481 18.1528 30.2258C18.1528 29.0242 19.1306 28.0466 20.3322 28.0466H22.9103V30.2258Z" fill="white"/>
<path d="M0 23C0 10.2975 10.2975 0 23 0V0C35.7025 0 46 10.2975 46 23V23C46 35.7025 35.7025 46 23 46V46C10.2975 46 0 35.7025 0 23V23Z" fill="#4485FD"/>
<path d="M29.5017 11.1428H26.9236V12.7375H28.7044V16.299C28.7044 18.981 26.5223 21.1628 23.8406 21.1628H23.4685C20.7865 21.1628 18.6047 18.9807 18.6047 16.299V12.7375H20.3854V11.1428H17.8073C17.3669 11.1428 17.01 11.4998 17.01 11.9402V16.299C17.01 19.8602 19.9073 22.7575 23.4685 22.7575H23.8406C27.4017 22.7575 30.299 19.8602 30.299 16.299V11.9402C30.299 11.4998 29.9421 11.1428 29.5017 11.1428Z" fill="white"/>
<path d="M26.8439 10C26.4035 10 26.0465 10.357 26.0465 10.7973V13.0299C26.0465 13.4703 26.4035 13.8273 26.8439 13.8273C27.2843 13.8273 27.6412 13.4703 27.6412 13.0299V10.7973C27.6412 10.357 27.2843 10 26.8439 10Z" fill="white"/>
<path d="M20.5448 10C20.1044 10 19.7475 10.357 19.7475 10.7973V13.0299C19.7475 13.4703 20.1044 13.8273 20.5448 13.8273C20.9852 13.8273 21.3422 13.4703 21.3422 13.0299V10.7973C21.3422 10.357 20.9852 10 20.5448 10Z" fill="white"/>
<path d="M24.505 26.4522V21.934H22.9103V26.4522H20.3322C18.2512 26.4522 16.5581 28.1453 16.5581 30.2261C16.5581 32.3071 18.2631 34.0001 20.3588 34.0001H20.7309C22.8119 34.0001 24.505 32.3071 24.505 30.2261V28.0469H27.2159V26.4522H24.505ZM22.9103 30.2258C22.9103 31.4274 21.9325 32.4052 20.7309 32.4052H20.3588C19.1219 32.4052 18.1528 31.4481 18.1528 30.2258C18.1528 29.0242 19.1306 28.0466 20.3322 28.0466H22.9103V30.2258Z" fill="white"/>
<path d="M28.9436 24.7512C27.5663 24.7512 26.4455 25.8718 26.4455 27.2496C26.4455 28.6268 27.566 29.7476 28.9436 29.7476C30.3211 29.7476 31.4419 28.6268 31.4419 27.2496C31.4419 25.872 30.3214 24.7512 28.9436 24.7512ZM28.9436 28.1527C28.4455 28.1527 28.0402 27.7474 28.0402 27.2493C28.0402 26.751 28.4455 26.3457 28.9436 26.3457C29.4419 26.3457 29.8472 26.751 29.8472 27.2493C29.8472 27.7474 29.4419 28.1527 28.9436 28.1527Z" fill="white"/>
<path d="M29.5017 11.1428H26.9236V12.7375H28.7044V16.299C28.7044 18.981 26.5223 21.1628 23.8406 21.1628H23.4685C20.7865 21.1628 18.6047 18.9807 18.6047 16.299V12.7375H20.3854V11.1428H17.8073C17.3669 11.1428 17.01 11.4998 17.01 11.9402V16.299C17.01 19.8602 19.9073 22.7575 23.4685 22.7575H23.8406C27.4017 22.7575 30.299 19.8602 30.299 16.299V11.9402C30.299 11.4998 29.9421 11.1428 29.5017 11.1428Z" fill="white"/>
<path d="M26.8439 10C26.4035 10 26.0465 10.357 26.0465 10.7973V13.0299C26.0465 13.4703 26.4035 13.8273 26.8439 13.8273C27.2843 13.8273 27.6412 13.4703 27.6412 13.0299V10.7973C27.6412 10.357 27.2843 10 26.8439 10Z" fill="white"/>
<path d="M20.5448 10C20.1044 10 19.7475 10.357 19.7475 10.7973V13.0299C19.7475 13.4703 20.1044 13.8273 20.5448 13.8273C20.9852 13.8273 21.3422 13.4703 21.3422 13.0299V10.7973C21.3422 10.357 20.9852 10 20.5448 10Z" fill="white"/>
<path d="M28.9436 24.7512C27.5663 24.7512 26.4455 25.8718 26.4455 27.2496C26.4455 28.6268 27.566 29.7476 28.9436 29.7476C30.3211 29.7476 31.4419 28.6268 31.4419 27.2496C31.4419 25.872 30.3214 24.7512 28.9436 24.7512ZM28.9436 28.1527C28.4455 28.1527 28.0402 27.7474 28.0402 27.2493C28.0402 26.751 28.4455 26.3457 28.9436 26.3457C29.4419 26.3457 29.8472 26.751 29.8472 27.2493C29.8472 27.7474 29.4419 28.1527 28.9436 28.1527Z" fill="white"/>
</svg>
