<svg width="46" height="46" viewBox="0 0 46 46" fill="none" xmlns="http://www.w3.org/2000/svg">
<rect width="46" height="46" rx="23" fill="#7C9ED1"/>
<g clip-path="url(#clip0)">
<path d="M32.0202 23.3658H30.4295V14.6067C30.4294 11.5102 27.9192 9 24.8228 9H24.0356C20.9391 9 18.4289 11.5102 18.4289 14.6067V23.3658H17.3892V26.4028L18.0374 25.7408C18.179 25.5992 18.3676 25.521 18.568 25.521C18.7667 25.521 18.9534 25.5981 19.0935 25.7383C19.3839 26.0287 19.3826 26.5026 19.0904 26.7946L17.5264 28.3586C17.4264 28.4587 17.3712 28.5917 17.3712 28.7333V33H33.7103C33.977 33 34.1932 32.7838 34.1932 32.5171V25.5388C34.1932 24.3387 33.2203 23.3658 32.0202 23.3658V23.3658Z" fill="#F3F0F3"/>
<path d="M31.4795 27.9296H30.6827C30.6027 27.9296 30.5378 27.8647 30.5378 27.7847V26.9879C30.5378 26.9079 30.4729 26.843 30.3929 26.843H29.4754C29.3954 26.843 29.3305 26.9079 29.3305 26.9879V27.7847C29.3305 27.8647 29.2656 27.9296 29.1856 27.9296H28.3888C28.3088 27.9296 28.244 27.9945 28.244 28.0745V28.992C28.244 29.072 28.3088 29.1368 28.3888 29.1368H29.1856C29.2656 29.1368 29.3305 29.2017 29.3305 29.2817V30.0785C29.3305 30.1585 29.3954 30.2234 29.4754 30.2234H30.3929C30.4729 30.2234 30.5378 30.1585 30.5378 30.0785V29.2817C30.5378 29.2017 30.6027 29.1368 30.6827 29.1368H31.4795C31.5595 29.1368 31.6243 29.072 31.6243 28.992V28.0745C31.6243 27.9945 31.5595 27.9296 31.4795 27.9296Z" fill="#05E39C"/>
<path d="M18.4289 16.1321C18.4289 14.5212 19.2891 13.1075 20.5743 12.3261C21.3918 10.4925 23.1643 9.17855 25.26 9.01688C25.1157 9.00577 24.9699 9 24.8228 9H24.0356C20.9391 9 18.4289 11.5102 18.4289 14.6066L18.4289 16.1321Z" fill="#E2DEE2"/>
<path d="M18.4289 18.734V23.3658H17.436V25.0933C17.7506 24.9163 18.1133 24.8149 18.4999 24.8149H19.3663C19.7663 24.8149 20.0907 24.4906 20.0907 24.0906V22.4295C19.0718 21.5226 18.4289 20.2021 18.4289 18.734V18.734Z" fill="#E2DEE2"/>
<path d="M23.3765 23.6817C20.6484 23.6817 18.4288 21.4622 18.4288 18.734V16.1321C18.4288 13.6778 20.4255 11.6812 22.8798 11.6812H25.9784C28.4327 11.6812 30.4294 13.6778 30.4294 16.1321V18.734C30.4294 21.4622 28.2099 23.6817 25.4816 23.6817H23.3765Z" fill="#CBC4CC"/>
<path d="M23.5975 23.6816H25.2608V33H23.5975V23.6816Z" fill="#E2DEE2"/>
<path d="M23.3765 23.6817C20.6484 23.6817 18.4288 21.4622 18.4288 18.734V16.1321C18.4288 13.6778 20.4255 11.6812 22.8798 11.6812H25.9784C28.4327 11.6812 30.4294 13.6778 30.4294 16.1321V18.734C30.4294 21.4622 28.2099 23.6817 25.4816 23.6817H23.3765Z" fill="#CBC4CC"/>
<path d="M19.4955 18.697V16.1866C19.4955 14.6841 20.4645 13.4044 21.8101 12.9375C22.6118 12.1604 23.7039 11.6812 24.906 11.6812H22.8798C20.4256 11.6812 18.4288 13.6778 18.4288 16.1321V18.734C18.4288 21.4622 20.6484 23.6817 23.3765 23.6817H25.4027C24.1111 23.6817 22.9336 23.184 22.0516 22.3705C20.5607 21.8159 19.4955 20.3786 19.4955 18.697V18.697Z" fill="#B5ADB6"/>
<path d="M25.4447 22.2634H23.4136C21.4439 22.2634 19.8471 20.6667 19.8471 18.6969V16.1866C19.8471 14.4815 21.2293 13.0994 22.9343 13.0994H25.9239C27.629 13.0994 29.0111 14.4816 29.0111 16.1866V18.6969C29.0112 20.6666 27.4144 22.2634 25.4447 22.2634V22.2634Z" fill="#F6A96C"/>
<path d="M23.4136 21.9588H25.4447C27.2432 21.9588 28.7065 20.4955 28.7065 18.697V18.1992H25.733L25.0086 17.2817H23.8497L23.1253 18.1992H20.1518V18.697C20.1518 20.4955 21.615 21.9588 23.4136 21.9588Z" fill="white"/>
<path d="M23.3672 21.9106C22.173 21.3342 21.349 20.1118 21.349 18.6969V18.5507H20.1987V18.6969C20.1987 20.454 21.6159 21.8856 23.3672 21.9106Z" fill="#F3F0F3"/>
<path d="M20.1518 18.1992H23.1253L23.8497 17.2817H25.0086L25.733 18.1992H28.7065V16.1866C28.7065 15.4995 28.4556 14.8702 28.0414 14.3843H20.8169C20.4027 14.8702 20.1518 15.4995 20.1518 16.1866V18.1992Z" fill="#8AC9FE"/>
<path d="M19.8471 16.1866V18.1991H21.3489V16.1866C21.3489 15.5136 21.5649 14.8915 21.9304 14.3843H20.4285C20.0631 14.8915 19.8471 15.5136 19.8471 16.1866Z" fill="#60B7FF"/>
<path d="M20.561 14.7358H28.2973C28.1332 14.4683 27.9252 14.2306 27.6833 14.0327H21.175C20.9331 14.2307 20.7251 14.4684 20.561 14.7358V14.7358Z" fill="#26A6FE"/>
<path d="M23.5463 18.2333L23.9806 17.6831C24.0057 17.6514 24.0433 17.6332 24.0837 17.6332H24.7747C24.8151 17.6332 24.8527 17.6514 24.8777 17.6831L25.3121 18.2333C25.4713 18.435 25.71 18.5507 25.967 18.5507H28.7065V17.8476H25.967C25.9266 17.8476 25.889 17.8294 25.8639 17.7976L25.4296 17.2474C25.2704 17.0457 25.0316 16.9301 24.7747 16.9301H24.0837C23.8267 16.9301 23.588 17.0457 23.4287 17.2474L22.9944 17.7976C22.9693 17.8294 22.9318 17.8476 22.8913 17.8476H20.1518V18.5507H22.8913C23.1483 18.5507 23.387 18.435 23.5463 18.2333Z" fill="#26A6FE"/>
<path d="M22.4109 17.0055C22.2167 17.0055 22.0593 16.8481 22.0593 16.654V15.6176C22.0593 15.4234 22.2167 15.266 22.4109 15.266C22.605 15.266 22.7625 15.4234 22.7625 15.6176V16.654C22.7625 16.8481 22.605 17.0055 22.4109 17.0055Z" fill="#26A6FE"/>
<path d="M26.4474 17.0055C26.2533 17.0055 26.0959 16.8481 26.0959 16.654V15.6176C26.0959 15.4234 26.2533 15.266 26.4474 15.266C26.6416 15.266 26.799 15.4234 26.799 15.6176V16.654C26.799 16.8481 26.6416 17.0055 26.4474 17.0055Z" fill="#26A6FE"/>
<path d="M26.6504 19.5587H22.2078C22.0137 19.5587 21.8563 19.4013 21.8563 19.2072C21.8563 19.013 22.0137 18.8556 22.2078 18.8556H26.6504C26.8446 18.8556 27.002 19.013 27.002 19.2072C27.002 19.4013 26.8447 19.5587 26.6504 19.5587Z" fill="#E2DEE2"/>
<path d="M26.4389 20.8203H22.4194C22.2252 20.8203 22.0678 20.6629 22.0678 20.4688C22.0678 20.2746 22.2252 20.1172 22.4194 20.1172H26.4389C26.6331 20.1172 26.7905 20.2746 26.7905 20.4688C26.7905 20.6629 26.6331 20.8203 26.4389 20.8203Z" fill="#E2DEE2"/>
<path d="M29.9449 29.7241C29.8648 29.7241 29.8 29.6592 29.8 29.5792V28.7824C29.8 28.7024 29.7351 28.6375 29.6551 28.6375H28.8583C28.7783 28.6375 28.7134 28.5726 28.7134 28.4926V27.9296H28.3888C28.3088 27.9296 28.244 27.9944 28.244 28.0745V28.9919C28.244 29.072 28.3088 29.1368 28.3888 29.1368H29.1856C29.2656 29.1368 29.3305 29.2017 29.3305 29.2817V30.0785C29.3305 30.1585 29.3954 30.2234 29.4754 30.2234H30.3929C30.4729 30.2234 30.5378 30.1585 30.5378 30.0785V29.7241H29.9449Z" fill="#0ED290"/>
<path d="M19.1276 25.7052C18.8183 25.3959 18.3156 25.3973 18.0048 25.7081L17.437 26.288V21.794C17.4377 21.5211 17.2151 21.2984 16.9421 21.2992L16.7242 21.2998C16.4514 21.3006 16.2275 21.5245 16.2267 21.7973V25.2445L15.9654 25.2453V21.338C15.9662 21.0651 15.7435 20.8423 15.4706 20.8431L15.2526 20.8438C14.9797 20.8445 14.7558 21.0684 14.7551 21.3412V25.2485L14.4926 25.2492V21.3418C14.4933 21.069 14.2706 20.8463 13.9978 20.8469L13.7798 20.8476C13.507 20.8482 13.2832 21.072 13.2824 21.345V25.2524L13.0179 25.253V22.0163C13.0187 21.7434 12.796 21.5207 12.5231 21.5215L12.3053 21.5221C12.0323 21.5228 11.8086 21.7466 11.8078 22.0196V32.5163C11.8073 32.7833 12.0053 33 12.2723 33H17.4191V28.7332C17.4191 28.6052 17.4699 28.4823 17.5605 28.3918L19.1245 26.8278C19.4353 26.517 19.4367 26.0143 19.1276 25.7052V25.7052Z" fill="#05E39C"/>
<path d="M13.1397 32.5162V25.2527L13.0169 25.2529V22.0162C13.0177 21.7433 12.795 21.5206 12.5221 21.5214L12.3042 21.522C12.0313 21.5227 11.8076 21.7465 11.8068 22.0195V32.5162C11.8063 32.7832 12.0042 32.9999 12.2712 32.9999H13.6041C13.3372 32.9999 13.1392 32.7832 13.1397 32.5162V32.5162Z" fill="#0ED290"/>
<path d="M25.4447 22.615H23.4136C21.2532 22.615 19.4955 20.8574 19.4955 18.6969V16.1866C19.4955 14.2904 21.0382 12.7478 22.9343 12.7478H25.9239C27.8201 12.7478 29.3627 14.2904 29.3627 16.1866V18.6969C29.3627 20.8574 27.6051 22.615 25.4447 22.615V22.615ZM22.9343 13.4509C21.4259 13.4509 20.1987 14.6781 20.1987 16.1866V18.6969C20.1987 20.4697 21.6409 21.9119 23.4136 21.9119H25.4447C27.2174 21.9119 28.6597 20.4697 28.6597 18.6969V16.1866C28.6597 14.6781 27.4325 13.4509 25.924 13.4509H22.9343Z" fill="#E2DEE2"/>
</g>
<defs>
<clipPath id="clip0">
<rect width="24" height="24" fill="white" transform="translate(11 9)"/>
</clipPath>
</defs>
</svg>
