<svg width="46" height="46" viewBox="0 0 46 46" fill="none" xmlns="http://www.w3.org/2000/svg">
<rect width="46" height="46" rx="23" fill="#A584FF"/>
<path d="M17.1571 11.4602C16.8711 11.0447 16.3029 10.9398 15.888 11.2254C15.2556 11.66 14.7583 12.1251 14.3671 12.6465C14.0681 13.0453 14.1445 13.6105 14.5384 13.9156C14.7044 14.0442 14.9013 14.1066 15.0965 14.1066C15.3645 14.1066 15.6298 13.9892 15.8096 13.7641C16.1189 13.3772 16.514 13.0097 16.922 12.7293C17.1796 12.5522 17.3177 12.2663 17.3177 11.9758C17.3177 11.7979 17.2654 11.6181 17.1571 11.4602Z" fill="black"/>
<path d="M32.8507 14.6586C32.2488 12.71 30.8535 11.2228 29.1278 10.6835C26.8994 9.9602 24.9441 10.4235 23.5701 11.0452C22.4882 10.3677 21.196 10 19.8728 10C18.4319 10 17.0539 10.4237 15.888 11.2253C15.3365 11.6046 14.823 12.08 14.402 12.602C14.3534 12.658 14.3172 12.7121 14.2895 12.7592C13.3052 14.049 12.7853 15.5763 12.7853 17.1787C12.7853 18.8885 13.3913 20.5418 14.493 21.8394C14.5204 21.8796 14.5511 21.9225 14.5821 21.966C14.6144 22.0113 14.6466 22.056 14.6725 22.0949C14.6819 22.1089 14.6916 22.1226 14.7017 22.136C15.1129 22.6844 15.5211 24.7781 15.6954 25.6721C15.7414 25.9082 15.7818 26.1156 15.8147 26.2698C15.9011 26.7017 15.9889 27.1687 16.0461 27.6553C16.2375 29.3143 16.5574 30.6701 16.9924 31.6733C17.5975 33.1255 18.4489 33.9069 19.5232 33.9963C19.5485 33.9984 19.574 33.9996 19.5993 33.9996H19.7209C21.0533 33.9996 21.7937 32.4669 22.3424 30.9672C22.3469 30.9544 22.3512 30.942 22.3552 30.9292L23.1056 28.5609L23.8381 30.9237C23.8426 30.9383 23.8472 30.9529 23.8527 30.9675C24.3692 32.3793 25.1342 34 26.4739 34H26.5955C26.6217 34 26.6482 33.9988 26.6743 33.9967C27.4129 33.9325 28.4508 33.4774 29.2012 31.6761C29.6091 30.7024 29.9096 29.4303 30.1478 27.6581C30.2056 27.1684 30.2935 26.7021 30.3777 26.2808C30.4124 26.1166 30.4529 25.9097 30.4988 25.6743C30.6728 24.7796 31.081 22.6854 31.4962 22.1318C33.1321 19.917 33.6373 17.12 32.8507 14.6586ZM30.0322 21.0415C29.4208 21.8576 29.0564 23.533 28.7075 25.3247C28.6637 25.5489 28.6253 25.7457 28.5904 25.9118C28.4964 26.3802 28.4006 26.8903 28.337 27.4296C28.1228 29.0236 27.8627 30.1484 27.5172 30.9722C27.2231 31.6785 26.8614 32.1241 26.5441 32.1749H26.5423C26.4437 32.0997 26.0839 31.7484 25.5744 30.3617L24.2427 26.0645C24.2375 26.0475 24.2317 26.0307 24.2256 26.0143C24.0492 25.5434 23.6121 25.2395 23.1123 25.2395C22.6125 25.2395 22.1757 25.5434 21.9993 26.0143C21.9938 26.0286 21.9887 26.0435 21.9838 26.0587L20.621 30.3589C20.0988 31.7813 19.7593 32.1073 19.665 32.1749H19.6474C19.213 32.1107 18.854 31.3974 18.6718 30.96C18.3083 30.1217 18.0273 28.9067 17.8587 27.4445C17.7936 26.8918 17.6978 26.3814 17.6017 25.902C17.5689 25.7457 17.5302 25.5482 17.4865 25.3234C17.1406 23.5479 16.7795 21.8862 16.1776 21.0631C16.1447 21.0144 16.1058 20.9603 16.0671 20.9058C16.0352 20.8611 16.0032 20.8167 15.9777 20.7783C15.957 20.7473 15.9345 20.7178 15.9102 20.6895C15.0721 19.7161 14.6104 18.4693 14.6104 17.1786C14.6104 15.9795 15.001 14.8349 15.7407 13.8658C15.7827 13.8162 15.8147 13.7688 15.8399 13.7265C16.1447 13.3535 16.5274 13.0004 16.9222 12.7291C17.7825 12.1377 18.8027 11.825 19.8728 11.825C20.9995 11.825 22.0894 12.1806 22.9414 12.8258C23.2246 13.0405 23.6066 13.071 23.9193 12.9049C24.9849 12.3412 26.6548 11.7995 28.5739 12.4218C29.7529 12.7905 30.6761 13.8016 31.1099 15.2051C31.7213 17.1185 31.3171 19.3022 30.0322 21.0415Z" fill="white"/>
</svg>
