<svg width="46" height="46" viewBox="0 0 46 46" fill="none" xmlns="http://www.w3.org/2000/svg">
<rect width="46" height="46" rx="23" fill="#8166FF"/>
<path d="M14.4329 29.8358C15.8575 29.4492 17.1966 28.8439 18.4048 28.0406C18.9766 27.6524 19.7951 27.6302 20.3053 27.9063C20.3377 27.924 20.3705 27.9409 20.4047 27.9549L23.0691 29.0479C23.3313 29.1553 23.6324 29.0993 23.8349 28.8994C26.1084 26.656 27.3814 24.424 28.1501 21.3328C28.2189 21.0562 28.1165 20.7655 27.8948 20.5897L25.6585 18.8173C25.0272 18.4487 24.6538 17.7615 24.6852 17.0129C24.7681 15.5441 24.617 14.0675 24.2351 12.6241C23.9592 11.5815 24.5723 10.5059 25.6018 10.2265L29.8751 9.06692C30.9046 8.78756 31.9666 9.40854 32.2425 10.4512C35.4046 22.4026 28.3764 34.7307 16.5754 37.9331C15.5458 38.2124 14.4837 37.5915 14.2079 36.5488L13.066 32.2332C12.7903 31.1907 13.4034 30.1151 14.4329 29.8358Z" fill="white"/>
</svg>
