<svg width="46" height="46" viewBox="0 0 46 46" fill="none" xmlns="http://www.w3.org/2000/svg">
<path d="M0 23C0 10.2975 10.2975 0 23 0V0C35.7025 0 46 10.2975 46 23V23C46 35.7025 35.7025 46 23 46V46C10.2975 46 0 35.7025 0 23V23Z" fill="#FD44B3"/>
<path d="M33.2525 22.1552C33.2384 22.0946 33.2156 22.0378 33.1852 21.9859C32.9385 21.3812 32.6379 20.7983 32.2848 20.2469L31.9591 19.7383C31.9423 19.7121 31.9234 19.6882 31.9035 19.6656C32.0011 19.4473 32.0559 19.205 32.0559 18.9498C32.0559 17.5303 30.9277 16.3754 29.5408 16.3754H28.1482C28.4841 15.8982 28.6827 15.3133 28.6827 14.6815C28.6827 13.8167 28.3221 12.9891 27.6935 12.4111L21.9765 7.15512C21.7334 6.93161 21.3592 6.95202 21.1408 7.20097C20.9224 7.44981 20.9424 7.83281 21.1856 8.05638L26.9025 13.3123C27.2816 13.6609 27.499 14.1599 27.499 14.6815C27.499 15.6155 26.7566 16.3754 25.8441 16.3754H25.7828C25.7496 16.3754 25.7165 16.3782 25.6838 16.3839L19.785 17.4082C19.7801 17.409 19.7699 17.4108 19.7582 17.4007C19.7464 17.3906 19.7464 17.38 19.7464 17.3749V10.8633C19.7464 10.5287 19.4815 10.2575 19.1546 10.2575C18.8278 10.2575 18.5629 10.5287 18.5629 10.8633V17.3748C18.5629 17.7423 18.7202 18.089 18.9944 18.3261C19.2686 18.5633 19.629 18.6639 19.9829 18.6025L25.8327 17.5868H29.5408C30.275 17.5868 30.8723 18.1982 30.8723 18.9497C30.8723 19.2336 30.6467 19.4646 30.3693 19.4646H25.9012C25.824 19.4646 25.7476 19.48 25.6762 19.5101L19.3229 22.1835C18.3934 22.5747 17.3323 22.5621 16.4118 22.149C15.0582 21.5415 14.1836 20.1715 14.1836 18.6587V9.47009C14.1836 9.13554 13.9186 8.86436 13.5918 8.86436C13.2649 8.86436 13 9.13554 13 9.47009V18.6587C13 20.4904 13.9735 22.1627 15.5151 23.0433V25.3633C15.5151 25.8455 15.4398 26.3221 15.2911 26.7796C14.2101 30.1069 14.1199 33.6522 15.0303 37.0325L15.171 37.5551C15.2434 37.8237 15.4815 38 15.7412 38C15.7933 38 15.8462 37.9929 15.8989 37.9781C16.2139 37.8892 16.3989 37.5556 16.3121 37.2332L16.1714 36.7105C15.3235 33.5625 15.4075 30.2607 16.4143 27.162C16.603 26.5809 16.6988 25.9758 16.6988 25.3634V23.5247C17.0946 23.627 17.5011 23.679 17.9078 23.679C18.543 23.679 19.1784 23.5541 19.773 23.304L26.0181 20.676H30.3692C30.6114 20.676 30.8416 20.6231 31.05 20.5287L31.2948 20.911C31.6043 21.3942 31.8658 21.8968 32.0808 22.4122C32.0222 23.226 31.3571 23.8698 30.5474 23.8698C29.2496 23.8698 28.1618 24.8045 27.8911 26.0505C27.8539 26.0504 27.8168 26.0513 27.7795 26.0543C27.4318 26.0826 26.9143 26.262 26.4234 26.9558C26.3464 27.0646 26.196 27.1143 26.0141 27.1258C26.4461 26.6312 26.7094 25.9791 26.7094 25.265C26.7094 23.7237 25.4843 22.4697 23.9785 22.4697C22.4726 22.4697 21.2475 23.7237 21.2475 25.265C21.2475 25.7577 21.3732 26.2207 21.5927 26.6231C21.5859 26.6457 21.5798 26.6687 21.5755 26.6926C21.569 26.7288 21.4168 27.5898 21.6245 28.6164C21.9082 30.0186 22.7162 31.0695 23.9612 31.6554C24.8623 32.0794 25.6528 32.255 26.3316 32.2549C27.6914 32.2549 28.6013 31.5496 29.0447 30.7235C29.0841 30.7759 29.1188 30.8338 29.1324 30.8727C29.2448 31.2855 29.6612 31.5208 30.1709 31.4586C30.8115 31.3803 31.5134 30.8491 31.5408 29.8678C31.5631 29.0678 31.0834 28.1667 30.347 27.6256C29.9934 27.3658 29.6188 27.2191 29.2481 27.188C29.2025 26.9628 29.1163 26.7675 29.0102 26.6185C29.0295 25.7675 29.7114 25.0812 30.5474 25.0812C31.372 25.0812 32.1117 24.7033 32.6113 24.1084C33.2549 27.1147 32.443 30.3273 30.268 32.6771C29.5128 33.493 29.0969 34.5613 29.0969 35.6852V37.3941C29.0969 37.7286 29.3618 37.9998 29.6887 37.9998C30.0155 37.9998 30.2805 37.7286 30.2805 37.3941V35.6853C30.2805 34.8726 30.5812 34.1002 31.1272 33.5102C32.7441 31.7634 33.7498 29.4813 33.959 27.0845C34.1055 25.4055 33.8571 23.7113 33.2525 22.1552ZM23.9785 23.6812C24.8317 23.6812 25.5259 24.3917 25.5259 25.265C25.5259 26.1383 24.8318 26.8488 23.9785 26.8488C23.1253 26.8488 22.4312 26.1383 22.4312 25.265C22.4312 24.3917 23.1253 23.6812 23.9785 23.6812ZM29.0816 28.395C29.3141 28.3894 29.5326 28.5186 29.6568 28.6098C30.0607 28.9066 30.3686 29.444 30.3577 29.8333C30.3536 29.9799 30.3119 30.0873 30.23 30.1615C30.1996 30.1892 30.167 30.2094 30.1361 30.2239C29.9476 29.8795 29.5917 29.4666 29.0976 29.413C28.8918 29.3907 28.3753 29.4134 28.0257 30.1052C27.6054 30.9369 26.4469 31.4917 24.4557 30.5547C23.0531 29.8946 22.7424 28.5906 22.7009 27.7344C23.0824 27.942 23.5172 28.0601 23.9785 28.0601C24.1333 28.0601 24.2849 28.0462 24.4327 28.0208C24.7206 28.1422 26.545 28.8495 27.3821 27.6664C27.5534 27.4242 27.737 27.2731 27.8733 27.262C27.9523 27.2559 28.0174 27.2997 28.0607 27.3414C28.0842 27.3828 28.1376 27.5438 28.0577 27.769C27.8749 28.2847 27.1465 28.7551 26.0596 29.0598C25.7443 29.1482 25.5588 29.4813 25.6451 29.804C25.7171 30.0731 25.9555 30.2498 26.2155 30.2498C26.2673 30.2498 26.3199 30.2428 26.3722 30.2282C28.0494 29.7581 28.7776 29.0276 29.0816 28.395Z" fill="white"/>
</svg>
