<svg width="46" height="46" viewBox="0 0 46 46" fill="none" xmlns="http://www.w3.org/2000/svg">
<rect width="46" height="46" rx="23" fill="#FD44B3"/>
<path d="M33.4113 24.8077L20.1624 11.5587C18.0874 9.48406 14.6842 9.48134 12.5699 11.5587C10.4767 13.6519 10.4767 17.0578 12.5699 19.1509L25.8188 32.3998C26.8654 33.4464 28.24 33.9697 29.6149 33.9697C30.9895 33.9697 32.3644 33.4464 33.4113 32.4001C35.5041 30.307 35.5041 26.9008 33.4113 24.8077ZM32.1252 31.1138C30.7409 32.4971 28.4889 32.4971 27.1049 31.1138L13.8563 17.8648C12.4722 16.4808 12.4722 14.2285 13.8505 12.8503C14.5512 12.1618 15.4662 11.8177 16.3775 11.8177C17.2862 11.8177 18.1911 12.1599 18.8763 12.8445L32.1252 26.0934C33.5089 27.4777 33.5089 29.7297 32.1252 31.1138Z" fill="white"/>
<path d="M33.411 11.5877C32.4035 10.5803 31.0549 10.0251 29.6148 10.0251C28.1747 10.0251 26.8262 10.58 25.8187 11.5877L12.5698 24.8367C10.4767 26.9298 10.4767 30.3357 12.5698 32.4288C13.6164 33.4754 14.991 33.999 16.366 33.999C17.7409 33.999 19.1155 33.4758 20.1617 32.4288L33.441 19.1496C34.4523 18.1385 35.0063 16.7927 34.9999 15.3602C34.9938 13.9283 34.4275 12.5864 33.411 11.5877ZM32.1552 17.8636L18.876 31.1428C17.4916 32.5262 15.2396 32.5268 13.8559 31.1428C12.4722 29.7584 12.4722 27.5067 13.8559 26.1227L27.1048 12.8738C27.7961 12.1826 28.7041 11.8366 29.6127 11.8366C30.5235 11.8366 31.4352 12.1841 32.1306 12.8796C32.804 13.5414 33.1769 14.4252 33.1812 15.3681C33.1851 16.3116 32.8207 17.1977 32.1552 17.8636Z" fill="white"/>
<path d="M21.2471 21.4477C20.8833 21.0839 20.2466 21.0839 19.8828 21.4477C19.519 21.8115 19.519 22.4482 19.8828 22.812C20.2466 23.1758 20.8833 23.1758 21.2471 22.812C21.6413 22.4178 21.6413 21.8115 21.2471 21.4477Z" fill="white"/>
<path d="M21.352 21.3381C20.9315 20.9197 20.1954 20.92 19.7755 21.3402C19.355 21.761 19.355 22.4986 19.7755 22.9191C19.9859 23.1292 20.2754 23.2344 20.565 23.2344C20.8545 23.2344 21.144 23.1295 21.3542 22.9191C21.5795 22.6939 21.7001 22.4016 21.694 22.0966C21.6883 21.8065 21.5667 21.5373 21.352 21.3381ZM21.1401 22.7048C20.8339 23.0107 20.2963 23.011 19.9901 22.7048C19.684 22.3986 19.684 21.8611 19.9901 21.5549C20.1432 21.4018 20.3539 21.3254 20.565 21.3254C20.776 21.3254 20.987 21.4018 21.1401 21.5549L21.1444 21.5591C21.2993 21.7019 21.3869 21.8951 21.3912 22.103C21.3957 22.3246 21.3066 22.5384 21.1401 22.7048Z" fill="white"/>
<path d="M23.5513 23.7517C23.1875 23.3879 22.5507 23.3879 22.1869 23.7517C21.8231 24.1155 21.8231 24.7522 22.1869 25.116C22.5507 25.4798 23.1875 25.4798 23.5513 25.116C23.9454 24.7522 23.9454 24.1155 23.5513 23.7517Z" fill="white"/>
<path d="M23.6565 23.6422C23.4549 23.4418 23.1681 23.3269 22.8691 23.3269C22.569 23.3269 22.2813 23.4424 22.0797 23.6443C21.878 23.8462 21.7625 24.1337 21.7625 24.4338C21.7625 24.734 21.8778 25.0217 22.0797 25.2233C22.2816 25.4249 22.5693 25.5407 22.8691 25.5407C23.169 25.5407 23.457 25.4249 23.6541 25.227C23.873 25.0251 23.9985 24.7358 23.9985 24.4335C23.9985 24.1324 23.8739 23.8441 23.6565 23.6422ZM23.4442 25.0086C23.1381 25.3148 22.6008 25.3148 22.2943 25.0086C22.1491 24.8634 22.066 24.6539 22.066 24.4338C22.066 24.2136 22.1491 24.0042 22.2943 23.8589C22.4474 23.7058 22.6581 23.6291 22.8691 23.6291C23.0802 23.6291 23.2912 23.7058 23.4442 23.8586L23.4488 23.8629C23.6052 24.0078 23.6953 24.2161 23.6953 24.4338C23.6953 24.6515 23.6053 24.8597 23.4442 25.0086Z" fill="white"/>
<path d="M23.8241 18.8706C23.4603 18.5068 22.8236 18.5068 22.4598 18.8706C22.096 19.2344 22.096 19.8711 22.4598 20.2349C22.8236 20.5987 23.4603 20.5987 23.8241 20.2349C24.1879 19.8711 24.188 19.2344 23.8241 18.8706Z" fill="white"/>
<path d="M23.9315 18.7631C23.5109 18.3426 22.773 18.3426 22.3525 18.7631C21.932 19.1837 21.932 19.9213 22.3525 20.3418C22.5626 20.5522 22.8521 20.6574 23.142 20.6574C23.4318 20.6574 23.7214 20.5522 23.9315 20.3418C24.3516 19.9213 24.3516 19.1837 23.9315 18.7631ZM23.7168 20.1278C23.426 20.4182 22.8573 20.4182 22.5669 20.1278C22.2607 19.8216 22.2607 19.284 22.5669 18.9778C22.72 18.8247 22.931 18.7483 23.142 18.7483C23.353 18.7483 23.564 18.8247 23.7168 18.9778C24.023 19.2843 24.023 19.8215 23.7168 20.1278Z" fill="white"/>
<path d="M26.1283 21.1746C25.7645 20.8108 25.1278 20.8108 24.764 21.1746C24.4002 21.5384 24.4002 22.1751 24.764 22.5389C25.1278 22.9027 25.7645 22.9027 26.1283 22.5389C26.5224 22.175 26.5224 21.5687 26.1283 21.1746Z" fill="white"/>
<path d="M26.2357 21.0674C26.0338 20.8658 25.7463 20.75 25.4462 20.75C25.146 20.75 24.8583 20.8655 24.6567 21.0674C24.4551 21.2694 24.3393 21.5568 24.3393 21.8569C24.3393 22.1571 24.4548 22.4448 24.6567 22.6464C24.8586 22.848 25.1463 22.9638 25.4462 22.9638C25.746 22.9638 26.034 22.848 26.2311 22.6501C26.4473 22.4506 26.5695 22.1804 26.5755 21.8894C26.5816 21.5847 26.4609 21.2927 26.2357 21.0674ZM26.0213 22.4318C25.7151 22.7379 25.1775 22.7379 24.8713 22.4318C24.7261 22.2865 24.6427 22.077 24.6427 21.8569C24.6427 21.6368 24.7261 21.4273 24.8713 21.2821C25.0242 21.129 25.2355 21.0523 25.4462 21.0523C25.6569 21.0523 25.8682 21.1289 26.0213 21.2818C26.1877 21.4479 26.2769 21.6616 26.2723 21.8833C26.2681 22.0913 26.1805 22.2847 26.0213 22.4318Z" fill="white"/>
</svg>
