<svg width="46" height="46" viewBox="0 0 46 46" fill="none" xmlns="http://www.w3.org/2000/svg">
<rect width="46" height="46" rx="23" fill="#00C9E4"/>
<path d="M33.9939 25.0476C33.9729 25.0195 33.9503 24.9934 33.9261 24.9684C33.2285 24.096 31.9672 23.9208 31.0878 24.5809C29.8203 25.5151 27.6518 27.087 26.928 27.6117L23.7664 27.3638L25.7008 26.9404C26.737 26.7896 27.4799 25.8753 27.435 24.7962C27.4347 24.7847 27.4339 24.7733 27.4328 24.7621C27.343 23.6838 26.4668 22.8707 25.395 22.8707H19.5447C19.0693 22.8707 18.6258 22.9924 18.2263 23.2321C18.2103 23.2419 18.1945 23.252 18.179 23.2628L11.9477 27.6166C11.5782 27.8748 11.4878 28.3839 11.746 28.7532C12.004 29.123 12.5134 29.2136 12.8826 28.9548L19.0878 24.6193C19.226 24.5412 19.3757 24.5028 19.5449 24.5028H25.3952C25.6123 24.5028 25.7783 24.6573 25.8045 24.8804C25.8064 25.0769 25.7006 25.2952 25.4573 25.3256C25.4328 25.3286 25.4083 25.3327 25.3841 25.3381L21.9011 26.1C21.6292 26.1596 21.4064 26.3534 21.3098 26.6143C21.2132 26.8755 21.2562 27.1678 21.4241 27.3898L22.3492 28.6143C22.4899 28.8007 22.7038 28.9179 22.9367 28.9362L27.1 29.2627C27.2926 29.2766 27.4856 29.2235 27.6423 29.11C27.6708 29.0894 30.5201 27.027 32.0616 25.891C32.2377 25.759 32.5176 25.8091 32.66 25.9995C32.6758 26.0205 32.6926 26.0409 32.7103 26.06C32.8199 26.2393 32.778 26.4692 32.6042 26.5995L27.0823 30.7616C26.9199 30.8832 26.7507 30.9295 26.5572 30.9039L18.5027 29.8971C18.2829 29.8696 18.0619 29.9325 17.8894 30.0712L14.8146 32.5477C14.4633 32.8307 14.408 33.3447 14.6908 33.6957C14.8519 33.896 15.0883 33.9999 15.327 33.9999C15.5068 33.9999 15.6878 33.9409 15.8383 33.8198L18.6435 31.5605L26.3477 32.5235C26.9622 32.6054 27.5542 32.4478 28.0628 32.0669L33.5855 27.905C34.4859 27.2296 34.669 25.948 33.9939 25.0476Z" fill="white"/>
<path d="M26.7278 12.8301C26.2769 12.8301 25.9115 13.1955 25.9115 13.6464V18.5444C25.9115 18.9953 26.2769 19.3607 26.7278 19.3607C27.1787 19.3607 27.5441 18.9953 27.5441 18.5444V13.6464C27.5441 13.1955 27.1787 12.8301 26.7278 12.8301Z" fill="white"/>
<path d="M29.1768 15.2788H24.2788C23.8279 15.2788 23.4625 15.6442 23.4625 16.0951C23.4625 16.546 23.8279 16.9115 24.2788 16.9115H29.1768C29.6276 16.9115 29.9931 16.546 29.9931 16.0951C29.9931 15.6442 29.6276 15.2788 29.1768 15.2788Z" fill="white"/>
<path d="M26.7278 10C23.3667 10 20.6328 12.7342 20.6328 16.0952C20.6328 19.4563 23.3667 22.1905 26.7278 22.1905C30.0886 22.1905 32.823 19.4564 32.823 16.0952C32.823 12.7341 30.0889 10 26.7278 10ZM26.7278 20.5578C24.2671 20.5578 22.2655 18.556 22.2655 16.0952C22.2655 13.6345 24.2671 11.6327 26.7278 11.6327C29.1884 11.6327 31.1904 13.6345 31.1904 16.0952C31.1904 18.556 29.1885 20.5578 26.7278 20.5578Z" fill="white"/>
</svg>
