<svg width="70" height="70" viewBox="0 0 70 70" fill="none" xmlns="http://www.w3.org/2000/svg">
<path d="M55.6701 34.2098C55.6701 25.5234 50.6868 17.771 43.2234 14C42.9916 30.6551 29.4885 44.1582 12.8333 44.39C16.6043 51.8535 24.3567 56.8368 33.0432 56.8368C37.1159 56.8368 41.0764 55.7521 44.5564 53.6912L55.5713 56.738L52.5245 45.723C54.5854 42.2431 55.6701 38.2825 55.6701 34.2098V34.2098Z" fill="#35C9D0"/>
<path d="M53.457 26.7285C53.457 11.9901 41.4669 0 26.7285 0C11.9901 0 0 11.9901 0 26.7285C0 31.5318 1.27853 36.2086 3.70636 40.3144L0.0982666 53.3582L13.1426 49.7507C17.2485 52.1785 21.9252 53.457 26.7285 53.457C41.4669 53.457 53.457 41.4669 53.457 26.7285ZM22.627 20.5078H18.5254C18.5254 15.9843 22.205 12.3047 26.7285 12.3047C31.252 12.3047 34.9316 15.9843 34.9316 20.5078C34.9316 22.8037 33.9597 25.0105 32.264 26.5614L28.7793 29.7507V32.9492H24.6777V27.9446L29.4949 23.5354C30.3558 22.7476 30.8301 21.6726 30.8301 20.5078C30.8301 18.2461 28.9902 16.4062 26.7285 16.4062C24.4668 16.4062 22.627 18.2461 22.627 20.5078ZM24.6777 37.0508H28.7793V41.1523H24.6777V37.0508Z" fill="#0AA8B0"/>
<rect x="14" y="11.6666" width="28" height="33.8333" fill="#0AA8B0"/>
<path d="M34.1473 31.3491C34.0595 25.5597 38.6814 20.7952 44.4708 20.7073V20.7073L44.4974 22.4595C44.5853 28.2489 39.9633 33.0134 34.1739 33.1013V33.1013L34.1473 31.3491Z" fill="white"/>
<rect width="34.9845" height="12.2053" rx="6.10265" transform="matrix(-0.0151115 -0.999886 0.999884 -0.015194 21.2359 44.6565)" fill="white"/>
<rect width="21.8589" height="12.2215" rx="6.11074" transform="matrix(-0.999885 0.0151474 -0.0152037 -0.999884 31.5327 33.1088)" fill="white"/>
<path d="M20.8798 21.0338L20.8002 15.793C20.7489 12.4148 23.4458 9.63467 26.824 9.58341V9.58341C30.2022 9.53215 32.9824 12.2292 33.0337 15.6074L33.1133 20.8482L20.8798 21.0338Z" fill="#00F3FF"/>
</svg>
